<svg xmlns="http://www.w3.org/2000/svg" width="128" height="128" viewBox="0 0 128 128">
    <defs>
        <linearGradient id="gradFile" x1="0" x2="1" y1="0" y2="1">
            <stop offset="0%" stop-color="#2B6CB0"/>
            <stop offset="100%" stop-color="#2B8AE0"/>
        </linearGradient>
        <linearGradient id="gradFunnel" x1="0" x2="0" y1="0" y2="1">
            <stop offset="0%" stop-color="#FFB86B"/>
            <stop offset="100%" stop-color="#FF8A4C"/>
        </linearGradient>
        <linearGradient id="gradPacket" x1="0" x2="1">
            <stop offset="0%" stop-color="#48BB78"/>
            <stop offset="100%" stop-color="#22C55E"/>
        </linearGradient>
    </defs>

    <!-- background -->
    <rect width="106" height="106" rx="20" fill="#F8FAFC"/>

    <!-- PCAP file corner -->
    <path d="M26 20 h48 l14 14 v34 a4 4 0 0 1 -4 4 h-58 a4 4 0 0 1 -4 -4 v-48 a4 4 0 0 1 4 -4z" fill="url(#gradFile)"/>
    <path d="M74 20 v14 h14z" fill="#ffffff44"/>

    <!-- packets (small squares) -->
    <rect x="34" y="36" width="10" height="8" rx="2" fill="url(#gradPacket)"/>
    <rect x="50" y="44" width="10" height="8" rx="2" fill="url(#gradPacket)"/>
    <rect x="66" y="36" width="10" height="8" rx="2" fill="url(#gradPacket)"/>

    <!-- funnel -->
    <path d="M40 40 L62 72 L73 40 L74 90 L56 95z" fill="url(#gradFunnel)"/>

    <!-- download arrow -->
    <circle cx="64" cy="83" r="14" fill="#0EA5A4"/>
    <path d="M64 76 v10" stroke="#fff" stroke-width="4" stroke-linecap="round"/>
    <path d="M58 85 l6 6 l6 -6" fill="none" stroke="#fff" stroke-width="4" stroke-linecap="round" stroke-linejoin="round"/>

</svg>
